PathFileType	4	(X/Y/Z)	RBDS04\RBDS04runT35.trc
DataRate	CameraRate	NumFrames	NumMarkers	Units	OrigDataRate	OrigDataStartFrame	OrigNumFrames
150.000000	150.000000	4	33	mm	150.000000	3375	4500
Frame#	Time	L.ASIS			L.Heel.Bottom			L.Heel.Lateral			L.Heel.Top			L.Iliac.Crest			L.MT1			L.MT5			L.PSIS			L.Shank.Bottom.Lateral			L.Shank.Bottom.Medial			L.Shank.Top.Lateral			L.Shank.Top.Medial			L.Thigh.Bottom.Lateral			L.Thigh.Bottom.Medial			L.Thigh.Top.Lateral			L.Thigh.Top.Medial			R.ASIS			R.ASY			R.Heel.Bottom			R.Heel.Lateral			R.Heel.Top			R.Iliac.Crest			R.MT1			R.MT5			R.PSIS			R.Shank.Bottom.Lateral			R.Shank.Bottom.Medial			R.Shank.Top.Lateral			R.Shank.Top.Medial			R.Thigh.Bottom.Lateral			R.Thigh.Bottom.Medial			R.Thigh.Top.Lateral			R.Thigh.Top.Medial			
		X1	Y1	Z1	X2	Y2	Z2	X3	Y3	Z3	X4	Y4	Z4	X5	Y5	Z5	X6	Y6	Z6	X7	Y7	Z7	X8	Y8	Z8	X9	Y9	Z9	X10	Y10	Z10	X11	Y11	Z11	X12	Y12	Z12	X13	Y13	Z13	X14	Y14	Z14	X15	Y15	Z15	X16	Y16	Z16	X17	Y17	Z17	X18	Y18	Z18	X19	Y19	Z19	X20	Y20	Z20	X21	Y21	Z21	X22	Y22	Z22	X23	Y23	Z23	X24	Y24	Z24	X25	Y25	Z25	X26	Y26	Z26	X27	Y27	Z27	X28	Y28	Z28	X29	Y29	Z29	X30	Y30	Z30	X31	Y31	Z31	X32	Y32	Z32	X33	Y33	Z33	

3376	22.5	2234.570384439162	980.400933393139	896.0066826337053	1590.658049404156	364.294320941995	981.8414892624481	1601.555578484891	330.1226660901589	939.2988851811684	1636.607602540108	359.5132420249589	971.9970125410275	2196.153375888253	1063.806378307625	863.4583148980067	1643.689958831665	159.0305475286816	1029.060007636249	1601.763511088872	174.9283243507284	936.9667385098643	2081.962882653087	1034.972865678817	960.2413587952924	1716.133833514375	351.323259346741	913.3830041366452	1690.897495887546	382.6214124949078	944.5494728821701	1772.311308652728	407.306465311263	896.6238560591556	1749.314932375176	442.4079320096272	929.6187325373647	2032.249604639773	649.1188831525428	853.2492201387728	1975.020101304749	671.5221021733162	892.9711582778777	2056.110267865769	755.1451778017134	833.1947111506594	2002.537600468371	776.4931137405204	872.2494430611297	2240.564860437148	986.043404117224	1083.103267932778	6549294.850869724	12492537.9777252	-21863647.99821042	2296.992713294258	76.94856970878273	1046.466844403579	2328.411083544011	92.95301383902941	1087.344264574873	2300.361423123485	122.0344783236906	1051.47941305426	2186.798817786221	1050.405654156803	1135.666546582024	2504.528023885734	118.3081968299896	1012.376957428906	2480.571778891589	96.72928406589836	1105.885911693142	2082.357999948648	1033.409201280236	1047.114309856698	2342.34432577031	224.9635567737006	1105.534592928606	2304.433105795979	227.3345996141853	1067.023535028703	2326.792536495689	302.5067963136864	1122.657912581642	2290.954691321205	304.3683289116894	1082.258567217788	2294.248712057301	640.7198983627006	1145.653371814142	2241.57510126671	613.8209929127112	1102.918396159559	2233.85436960884	731.5655502588688	1162.73298323477	2181.294984645937	704.1575972538369	1124.375338376004	
3377	22.50666666666667	2235.576111590957	979.9121062921312	895.7689717438473	1587.520976352275	377.9873944669446	980.6841560645548	1597.535502612659	342.9995901276176	938.5735247196435	1633.312269712854	371.7459619547766	971.1476701151142	2196.181337890693	1063.486003810459	863.2181519088107	1634.204850261215	171.8250273923415	1030.146289572769	1593.159987065261	188.0961986665179	937.6916918066927	2082.727511090774	1033.844130136108	959.7628590983954	1713.713347717449	359.954031766896	913.4724634171032	1689.729006272078	392.7205502403265	944.1963878367065	1772.379148230032	413.3603494795919	896.4884601608992	1750.758922509084	449.7823277850582	929.0585869155401	2037.672296271005	645.9349561535215	852.9182979839653	1979.744870929842	667.7104694463022	891.9988200668627	2060.323849259349	752.1904629555924	832.7402550860656	2005.951479477697	773.0055746425903	871.053521414124	2241.322187871918	985.0895909256632	1082.983218882127	6671475.881582648	12725620.74238339	-22271442.46691811	2313.945236901761	68.38511419105683	1044.710858790707	2344.955798529512	85.58741091640177	1085.486746866739	2314.667692668196	113.5821586092075	1050.434654037209	2187.346276072542	1049.329448328737	1135.329800263272	2519.091561489225	121.9094876009466	1009.499092448814	2497.224861461836	97.64790703962314	1102.942152831642	2083.081782615302	1032.201046564434	1046.784591907176	2351.324342167575	219.5532435111636	1104.421043206987	2313.397994778571	220.2901214918206	1065.799537765205	2331.837481560706	296.1403380388489	1122.012406145314	2295.944498974168	296.5278939699264	1081.549952649937	2288.056763373548	635.3559514685471	1146.511655762849	2235.912641681428	610.4814509695221	1101.950141678819	2229.697107953155	727.6386959324399	1163.247595144632	2177.333307652893	702.0611024261866	1123.438908544396	
3378	22.51333333333334	2236.604882156787	978.9256344072503	895.4997836180659	1585.635465074733	391.5220422332393	979.6488042745375	1594.781637753881	355.8495824810264	937.9083870115157	1631.22002050749	383.8371021351631	970.422576694283	2196.16990446626	1062.599739519701	862.900039522676	1625.856936753778	184.5305835833514	1030.802956943704	1585.830130491823	201.4511091555342	937.9863870959759	2083.459240830392	1032.122571570548	959.2283579983889	1712.306579413613	368.3935572369187	913.5711810261453	1689.667177700764	402.5525204131474	943.8874261343348	1773.356891467994	419.1014288553128	896.4049767388849	1753.2034392464	456.7453279685322	928.5857952521304	2043.340681316673	642.1670013007021	852.6064823051782	1984.832825759579	663.2208195927464	891.2487779835736	2064.642670261046	748.6740881732863	832.36820049203	2009.593009365293	768.8675628569126	870.1242565190296	2242.029729041104	983.8021559327866	1082.867492503541	6795167.349775598	12961584.92337732	-22684276.09982396	2328.11144238407	61.10003700550191	1042.635993646607	2358.737213271872	79.08808204686025	1083.418876805385	2326.615278009526	106.2774750732911	1049.15354093672	2187.765189439127	1047.941732760052	1134.950029179203	2530.912531616916	124.7902530660453	1006.936672303067	2510.8435642408	97.93337724026827	1100.161043439074	2083.751936294295	1030.498227893353	1046.395992757246	2358.477189269322	214.5770872471101	1103.242652088431	2320.65939425784	213.9166647793033	1064.43074854971	2335.562282730051	290.2036811351331	1121.213494129587	2299.750792372702	289.3331726190368	1080.619050525521	2282.255795761425	630.0303108898751	1147.301475849333	2230.621744608661	607.0446390122381	1101.059756558648	2225.788428948417	723.6353375098903	1163.728177396205	2173.678793386967	699.7619779803055	1122.568473061802	
3379	22.52	2237.662919920578	977.4073395228718	895.2296350848658	1585.207452740889	404.8647135312306	978.7992007887078	1593.44128204804	368.6486546116839	937.3416432871295	1630.524185858322	395.7128195373375	969.8370789617193	2196.201254269996	1061.097753349731	862.506381011386	1618.709732735034	197.0353402222078	1030.958860998846	1579.778361916116	214.9487969137115	937.8403418161213	2084.16141933262	1029.789663228586	958.6176601097534	1711.983480615659	376.5649332440281	913.6378526331843	1690.776064561244	412.0094407335433	943.6012377606382	1775.293045081039	424.4660052676172	896.3479072887171	1756.698259778113	463.2070506373527	928.1946820937586	2049.215916668276	637.8306945174105	852.3078015782537	1990.264953033909	658.0771400783724	890.737765605954	2069.043590948082	744.6041958709726	832.0763159658455	2013.457378061171	764.0946459136705	869.4797812638225	2242.673767963398	982.1494384464863	1082.78562836439	6920378.533428979	13200448.22226283	-23102179.8406905	2339.102878636682	54.96320762345823	1040.194545532496	2369.364694306453	73.29687284449845	1081.115795501085	2335.917752329753	100.0316935307255	1047.547822192844	2188.046485790417	1046.213963838574	1134.541023215309	2539.877179619556	126.4306014657726	1004.767687112814	2521.145991361466	97.14812010649747	1097.621537230678	2084.347064429549	1028.270396751913	1045.926074281847	2363.679021144924	209.8519616785988	1101.992002618526	2326.081031772137	208.0696154162844	1062.912057165274	2337.914413318513	284.5957778181838	1120.250187944658	2302.310514877014	282.7187070634611	1079.452587793687	2277.037269655594	624.8305705715354	1147.922504426627	2225.834257754599	603.5044940696147	1100.259339371152	2222.258011490831	719.6056808412081	1164.082689318246	2170.42113549582	697.234689153148	1121.754448937247	
